<?xml version="1.0" encoding="UTF-8" standalone="no"?>
<!-- Created with Inkscape (http://www.inkscape.org/) -->

<svg
   xmlns:dc="http://purl.org/dc/elements/1.1/"
   xmlns:cc="http://creativecommons.org/ns#"
   xmlns:rdf="http://www.w3.org/1999/02/22-rdf-syntax-ns#"
   xmlns:svg="http://www.w3.org/2000/svg"
   xmlns="http://www.w3.org/2000/svg"
   xmlns:xlink="http://www.w3.org/1999/xlink"
   xmlns:sodipodi="http://sodipodi.sourceforge.net/DTD/sodipodi-0.dtd"
   xmlns:inkscape="http://www.inkscape.org/namespaces/inkscape"
   width="170.00002mm"
   height="170.00002mm"
   viewBox="0 0 170.00002 170.00002"
   version="1.1"
   id="svg1340"
   inkscape:version="0.92.4 (5da689c313, 2019-01-14)"
   sodipodi:docname="piece_cols.svg">
  <defs
     id="defs1334">
    <linearGradient
       inkscape:collect="always"
       xlink:href="#linearGradient1179"
       id="linearGradient2858"
       gradientUnits="userSpaceOnUse"
       gradientTransform="matrix(2.737071,0,0,2.737071,-309.98682,1657.6883)"
       x1="-113.45248"
       y1="-569.62164"
       x2="-149.17053"
       y2="-621.72583" />
    <linearGradient
       id="linearGradient1179"
       inkscape:collect="always">
      <stop
         id="stop1175"
         offset="0"
         style="stop-color:#765f00;stop-opacity:1" />
      <stop
         id="stop1177"
         offset="1"
         style="stop-color:#ffdf5f;stop-opacity:1" />
    </linearGradient>
    <linearGradient
       inkscape:collect="always"
       xlink:href="#linearGradient1179"
       id="linearGradient2860"
       gradientUnits="userSpaceOnUse"
       gradientTransform="matrix(0,-1.8414393,-1.8414393,0,-1765.6898,-213.6189)"
       x1="-113.45248"
       y1="-569.62164"
       x2="-149.17053"
       y2="-621.72583" />
  </defs>
  <sodipodi:namedview
     id="base"
     pagecolor="#ffffff"
     bordercolor="#666666"
     borderopacity="1.0"
     inkscape:pageopacity="0.0"
     inkscape:pageshadow="2"
     inkscape:zoom="0.35"
     inkscape:cx="531.85484"
     inkscape:cy="597.569"
     inkscape:document-units="mm"
     inkscape:current-layer="layer1"
     showgrid="false"
     inkscape:window-width="1920"
     inkscape:window-height="1027"
     inkscape:window-x="-8"
     inkscape:window-y="-8"
     inkscape:window-maximized="1" />
  <metadata
     id="metadata1337">
    <rdf:RDF>
      <cc:Work
         rdf:about="">
        <dc:format>image/svg+xml</dc:format>
        <dc:type
           rdf:resource="http://purl.org/dc/dcmitype/StillImage" />
        <dc:title></dc:title>
      </cc:Work>
    </rdf:RDF>
  </metadata>
  <g
     inkscape:label="Camada 1"
     inkscape:groupmode="layer"
     id="layer1"
     transform="translate(132.02647,-385.27048)">
    <circle
       style="opacity:1;fill:#000000;fill-opacity:1;stroke:none;stroke-width:0.48025227;stroke-linecap:butt;stroke-linejoin:miter;stroke-miterlimit:4;stroke-dasharray:none;stroke-dashoffset:13.6062994;stroke-opacity:1;paint-order:stroke fill markers"
       id="circle2838"
       cx="-47.02647"
       cy="470.27048"
       r="60" />
    <g
       transform="matrix(0.57086378,0,0,0.57086817,335.10733,454.18151)"
       id="g2856">
      <circle
         r="80.300705"
         cy="28.183239"
         cx="-669.39581"
         id="circle2848"
         style="opacity:1;fill:#d4aa00;fill-opacity:1;stroke:none;stroke-width:0.64274329;stroke-linecap:butt;stroke-linejoin:miter;stroke-miterlimit:4;stroke-dasharray:none;stroke-dashoffset:13.6062994;stroke-opacity:1;paint-order:stroke fill markers" />
      <path
         inkscape:connector-curvature="0"
         id="path2850"
         d="m -669.39583,-59.40256 a 87.586271,87.586271 0 0 0 -87.58657,87.58663 87.586271,87.586271 0 0 0 87.58657,87.58516 87.586271,87.586271 0 0 0 87.58657,-87.58516 87.586271,87.586271 0 0 0 -87.58657,-87.58663 z m 0,10.94759 a 76.637987,76.637987 0 0 1 76.63743,76.63904 76.637987,76.637987 0 0 1 -76.63743,76.6375 76.637987,76.637987 0 0 1 -76.63776,-76.6375 76.637987,76.637987 0 0 1 76.63776,-76.63904 z"
         style="opacity:1;fill:url(#linearGradient2858);fill-opacity:1;stroke:none;stroke-width:10.76973534;stroke-linecap:butt;stroke-linejoin:miter;stroke-miterlimit:4;stroke-dasharray:none;stroke-dashoffset:13.6062994;stroke-opacity:1;paint-order:stroke fill markers" />
      <circle
         style="opacity:1;fill:#9b7c00;fill-opacity:1;stroke:none;stroke-width:0.43096536;stroke-linecap:butt;stroke-linejoin:miter;stroke-miterlimit:4;stroke-dasharray:none;stroke-dashoffset:13.6062994;stroke-opacity:1;paint-order:stroke fill markers"
         id="circle2852"
         cx="-669.39581"
         cy="28.183239"
         r="53.842373" />
      <path
         style="opacity:1;fill:url(#linearGradient2860);fill-opacity:1;stroke:none;stroke-width:7.24563408;stroke-linecap:butt;stroke-linejoin:miter;stroke-miterlimit:4;stroke-dasharray:none;stroke-dashoffset:13.6062994;stroke-opacity:1;paint-order:stroke fill markers"
         d="m -610.47003,28.18333 a 58.926058,58.926058 0 0 1 -58.9263,58.92626 58.926058,58.926058 0 0 1 -58.92531,-58.92626 58.926058,58.926058 0 0 1 58.92531,-58.92625 58.926058,58.926058 0 0 1 58.9263,58.92625 z m -7.36529,0 a 51.560301,51.560301 0 0 0 -51.56101,-51.55993 51.560301,51.560301 0 0 0 -51.55997,51.55993 51.560301,51.560301 0 0 0 51.55997,51.56016 51.560301,51.560301 0 0 0 51.56101,-51.56016 z"
         id="path2854"
         inkscape:connector-curvature="0" />
    </g>
    <rect
       y="385.27048"
       x="-132.02647"
       height="170.00002"
       width="170.00002"
       id="rect2887"
       style="fill:none;fill-opacity:1;stroke:none;stroke-width:0.21002063" />
  </g>
</svg>
